<svg class="icon" style="width: 1em;height: 1em;vertical-align: middle;fill: currentColor;overflow: hidden;" viewBox="0 0 1024 1024" version="1.1" xmlns="http://www.w3.org/2000/svg" p-id="4481"><path d="M551.94575273 351.47725392l71.22179656 244.79348842h56.90050575l44.08827479-148.45025151h1.92331291l44.088276 148.45025151h57.01886256l71.13302804-244.79348842H833.04549095l-37.04598619 160.75946211h-2.04167213l-42.19455018-160.75946211h-53.29059233l-42.19455018 160.37479856h-2.04167213l-36.92762818-160.37479856h-65.39267641zM366.83417737 596.27074234v-244.79348842h170.67192532v48.05326105h-111.49303384v50.18370048h102.76414715v48.17161906h-102.76414715v50.30205849h111.49303384v48.08284934h-170.67192532zM339.73024389 596.27074234v-244.79348842h-59.03094519v141.05289007h-2.07126042l-96.31364741-141.05289007h-50.89384858v244.79348842h59.1493032v-141.2896049h1.53865178l97.43804614 141.2896049h50.18370048z" fill="#bfbfbf" p-id="4482"></path><path d="M58.92639949 848.57995022h168.27518035v85.27678425c0 30.47712965 33.554432 49.11848076 59.41560874 32.93305364l189.13573941-118.20983789h489.35026203c21.42275963 0 38.82135401-17.39859437 38.82135279-38.85094229V136.59869579c0-21.42275963-17.39859437-38.82135401-38.8509423-38.82135279H58.95598899c-21.45234793 0-38.85094229 17.39859437-38.85094229 38.85094229v673.15990164c0 21.42275963 17.39859437 38.82135401 38.85094229 38.82135279z m239.46738862-71.19220706h-207.12612386V168.93996054H932.76192526V777.41733266H455.33621028l-156.94242217 98.0594245V777.41733266z" fill="#bfbfbf" p-id="4483"></path></svg>