<svg class="icon" style="width: 1em;height: 1em;vertical-align: middle;fill: currentColor;overflow: hidden;" viewBox="0 0 1024 1024" version="1.1" xmlns="http://www.w3.org/2000/svg" p-id="4391"><path d="M163.229994 1023.786711c-19.537263 0-37.197584-7.934347-49.738971-22.224703-11.389627-13.053281-17.404374-30.031077-17.404374-49.141762V85.315559c0-47.051531 38.264028-85.315559 85.315559-85.315559h682.524474c47.051531 0 85.315559 38.264028 85.315559 85.315559v867.062029c0 40.652864-28.794001 71.323808-66.972714 71.323808-10.707103 0-21.499521-2.431493-32.035992-7.12385l-304.149969-178.48015c-7.251823-3.241991-36.173797-3.369965-43.340304-0.127973L195.052697 1016.748177a77.637159 77.637159 0 0 1-31.822703 7.038534zM181.402208 85.315559v844.197459l286.788252-169.522016c20.006499-8.872818 41.50602-10.74976 56.009665-10.749761 14.674276 0 36.429744 1.9196 56.692189 10.96305l283.077026 169.05278V85.315559H181.402208z" fill="#5B5B5B" p-id="4392"></path></svg>